<?xml version="1.0" standalone="no"?>
<!DOCTYPE svg PUBLIC "-//W3C//DTD SVG 20010904//EN"
 "http://www.w3.org/TR/2001/REC-SVG-20010904/DTD/svg10.dtd">
<svg version="1.0" xmlns="http://www.w3.org/2000/svg"
 width="512.000000pt" height="512.000000pt" viewBox="0 0 512.000000 512.000000"
 preserveAspectRatio="xMidYMid meet">

<g transform="translate(0.000000,512.000000) scale(0.100000,-0.100000)"
fill="#000000" stroke="none">
<path d="M800 4947 c-49 -16 -133 -102 -148 -153 -18 -60 -18 -4408 0 -4468
16 -55 99 -138 154 -154 32 -9 439 -12 1756 -12 1936 0 1773 -7 1851 80 24 26
49 66 55 88 17 57 17 4407 0 4464 -6 22 -31 62 -55 88 -78 87 86 80 -1857 79
-1224 -1 -1731 -4 -1756 -12z m3495 -172 l25 -24 0 -2191 0 -2191 -25 -24 -24
-25 -1711 0 -1711 0 -24 25 -25 24 0 2191 0 2191 25 24 24 25 1711 0 1711 0
24 -25z"/>
<path d="M2080 4560 l0 -80 480 0 480 0 0 80 0 80 -480 0 -480 0 0 -80z"/>
<path d="M1760 4240 l0 -80 800 0 800 0 0 80 0 80 -800 0 -800 0 0 -80z"/>
<path d="M1120 3827 c-49 -16 -133 -102 -148 -153 -17 -59 -17 -1369 0 -1428
16 -55 99 -138 154 -154 31 -9 215 -12 716 -12 769 0 736 -3 811 80 24 26 49
66 55 88 17 56 17 1368 0 1424 -6 22 -31 62 -55 88 -75 83 -41 80 -817 79
-466 -1 -692 -5 -716 -12z m1415 -172 l25 -24 0 -671 0 -671 -25 -24 c-20 -21
-34 -25 -82 -25 l-59 0 -17 68 c-10 38 -35 97 -55 132 -42 72 -131 166 -184
194 l-36 20 38 45 c84 101 104 179 98 377 -3 131 -5 143 -35 206 -44 93 -100
151 -191 196 -72 35 -81 37 -172 37 -91 0 -100 -2 -172 -37 -91 -45 -147 -103
-191 -196 -30 -63 -32 -75 -35 -206 -6 -198 14 -276 98 -377 l39 -46 -39 -22
c-104 -58 -213 -210 -241 -336 l-12 -55 -59 0 c-49 0 -63 4 -83 25 l-25 24 0
671 0 671 25 24 24 25 671 0 671 0 24 -25z m-624 -307 c51 -15 114 -70 140
-120 11 -22 18 -42 15 -45 -2 -3 -54 -17 -115 -33 l-111 -28 -111 28 c-61 16
-113 30 -115 33 -11 11 38 87 75 118 66 56 141 72 222 47z m49 -360 l120 30 0
-46 c0 -75 -20 -123 -75 -177 -51 -52 -102 -75 -165 -75 -63 0 -114 23 -165
75 -55 54 -75 102 -75 177 l0 46 120 -30 120 -30 120 30z m44 -466 c88 -41
148 -100 191 -185 19 -38 35 -76 35 -83 0 -12 -67 -14 -390 -14 -323 0 -390 2
-390 14 0 32 73 156 114 194 48 45 125 87 183 102 71 18 186 5 257 -28z"/>
<path d="M3040 3680 l0 -80 160 0 160 0 0 80 0 80 -160 0 -160 0 0 -80z"/>
<path d="M3520 3680 l0 -80 320 0 320 0 0 80 0 80 -320 0 -320 0 0 -80z"/>
<path d="M3040 3200 l0 -80 160 0 160 0 0 80 0 80 -160 0 -160 0 0 -80z"/>
<path d="M3520 3200 l0 -80 320 0 320 0 0 80 0 80 -320 0 -320 0 0 -80z"/>
<path d="M3040 2720 l0 -80 160 0 160 0 0 80 0 80 -160 0 -160 0 0 -80z"/>
<path d="M3520 2720 l0 -80 320 0 320 0 0 80 0 80 -320 0 -320 0 0 -80z"/>
<path d="M3040 2240 l0 -80 160 0 160 0 0 80 0 80 -160 0 -160 0 0 -80z"/>
<path d="M3520 2240 l0 -80 320 0 320 0 0 80 0 80 -320 0 -320 0 0 -80z"/>
<path d="M960 1680 l0 -80 160 0 160 0 0 80 0 80 -160 0 -160 0 0 -80z"/>
<path d="M1440 1680 l0 -80 160 0 160 0 0 80 0 80 -160 0 -160 0 0 -80z"/>
<path d="M1920 1680 l0 -80 160 0 160 0 0 80 0 80 -160 0 -160 0 0 -80z"/>
<path d="M2400 1680 l0 -80 880 0 880 0 0 80 0 80 -880 0 -880 0 0 -80z"/>
<path d="M960 1200 l0 -80 1600 0 1600 0 0 80 0 80 -1600 0 -1600 0 0 -80z"/>
<path d="M3040 720 l0 -80 160 0 160 0 0 80 0 80 -160 0 -160 0 0 -80z"/>
<path d="M3520 720 l0 -80 320 0 320 0 0 80 0 80 -320 0 -320 0 0 -80z"/>
</g>
</svg>
